<?xml version="1.0" encoding="utf-8"?>
<!-- Generator: Adobe Illustrator 24.0.0, SVG Export Plug-In . SVG Version: 6.00 Build 0)  -->
<svg version="1.1" id="Layer_1" xmlns="http://www.w3.org/2000/svg" xmlns:xlink="http://www.w3.org/1999/xlink" x="0px" y="0px"
	 viewBox="0 0 825 130" style="enable-background:new 0 0 825 130;" xml:space="preserve">
<style type="text/css">
	.st0{fill:none;}
	.st1{fill:#FFFFFF;}
	.st2{fill:#FFFFFF;stroke:#FFFFFF;stroke-width:3;stroke-miterlimit:10;}
	.st3{fill:#FBB03B;stroke:#F15A24;stroke-width:8;stroke-miterlimit:10;}
	.st4{fill:#2E3192;stroke:#1B1464;stroke-width:8;stroke-miterlimit:10;}
	.st5{fill:#2E3192;stroke:#1B1464;stroke-width:5;stroke-miterlimit:10;}
	.st6{fill:#FBB03B;stroke:#F15A24;stroke-width:5;stroke-miterlimit:10;}
</style>
<rect id="_x3C_Slice_x3E_" x="-21" y="-61" class="st0" width="996" height="48"/>
<rect id="_x3C_Slice_x3E__1_" x="-28" y="-3" class="st0" width="890" height="156"/>
<g>
	<path class="st1" d="M144.6,71.8c0,8.6-2.3,15.6-6.8,20.9c-4.8,5.7-11.5,8.5-20,8.5c-1.4,0-3.6-0.1-6.4-0.2c-2.9-0.2-5-0.2-6.4-0.2
		c-1.5,0-2.3,0.7-2.3,2c0,1.6,0.2,4.1,0.5,7.3c0.3,3.2,0.5,5.7,0.5,7.3c0,0.8-0.4,1.2-1.1,1.2c-2.2,0-5.4-0.1-9.8-0.2
		c-4.3-0.1-7.6-0.2-9.8-0.2c-1,0-1.5-0.5-1.5-1.5c0-4,0.1-9.9,0.2-17.8c0.1-7.9,0.2-13.9,0.2-17.8c0-11.2-0.5-22.9-1.4-35.2L80.3,45
		c-0.1-0.7,0.5-1.1,1.6-1.2c2.8-0.4,8.9-0.5,18.4-0.5c5.6,0,10.9,0.1,16.1,0.2c8.4,0.2,15.2,2.9,20.4,8
		C141.9,56.6,144.6,63.4,144.6,71.8z M123.3,72.7c0-8.3-4-12.4-12.1-12.4c-5.7,0-8.7,0.3-9,1c-0.2,0.5-0.4,4.6-0.4,12.3
		c0,1.1,0,2.7,0.1,4.9c0.1,2.2,0.1,3.8,0.1,4.9c0,0.7,3.2,1.1,9.6,1.1C119.4,84.4,123.3,80.5,123.3,72.7z"/>
	<path class="st1" d="M186.9,84.9c0,1.4-0.8,2.1-2.3,2.1c-0.7,0-1.7,0-3-0.1c-1.3-0.1-2.3-0.1-2.9-0.1c-3,0-5,0.5-6,1.4
		c-1.1,0.9-1.6,2.8-1.6,5.6c0,1.5,0,3.9,0.1,7c0.1,3.1,0.1,5.4,0.1,7c0,1,0.1,2.6,0.2,4.6c0.1,2,0.2,3.6,0.2,4.6
		c0,0.9-0.6,1.3-1.8,1.4c-1.7,0.1-4.3,0.2-7.8,0.2c-3.4,0-6.1-0.1-8.1-0.3c-1.2-0.1-1.8-0.7-1.8-1.8c0-2.8,0-7.1,0.1-12.8
		c0-5.7,0.1-9.9,0.1-12.8c0-8.4-0.8-15.2-2.3-20.7c-0.1-0.3-0.1-0.6-0.1-0.8c0-0.5,0.3-0.9,0.8-1.1c2-0.2,4.8-0.6,8.6-1.2
		c5.6-1.1,8.5-1.7,8.7-1.7c0.6,0,1,1.1,1.2,3.4c0.2,2.2,0.5,3.4,1,3.4c-0.5,0,1-0.9,4.4-2.8s6.7-2.8,9.9-2.8c2,0,3,0.4,3,1.3
		c0,1-0.1,2.5-0.3,4.4c-0.2,2-0.3,3.5-0.4,4.4c0,1,0,2.4,0.1,4.1C186.9,82.8,186.9,84.2,186.9,84.9z"/>
	<path class="st1" d="M244.5,91.9c0,8.1-2.5,14.7-7.4,19.8c-5,5.1-11.5,7.6-19.6,7.6c-7.8,0-14.3-2.5-19.3-7.5
		c-5.1-5-7.6-11.4-7.6-19.2c0-8.3,2.4-15,7.3-20.1c4.8-5.1,11.4-7.7,19.6-7.7c8,0,14.6,2.5,19.5,7.6C242,77.3,244.5,83.8,244.5,91.9
		z M227,91.9c0-2.8-0.9-5.3-2.6-7.4c-1.7-2.2-4-3.2-6.8-3.2c-2.8,0-5.1,1.1-6.9,3.3c-1.7,2.1-2.6,4.5-2.6,7.4c0,2.9,0.9,5.4,2.6,7.4
		c1.8,2.2,4.1,3.3,6.9,3.3c2.8,0,5.1-1.1,6.9-3.3C226.2,97.2,227,94.8,227,91.9z"/>
	<path class="st1" d="M283.8,83.7c0,0.9-0.5,1.3-1.4,1.3c-3.8,0-6.9-0.1-9.1-0.3c0.1,2.7,0.2,6.4,0.3,11.2c0,2,0.2,5.6,0.5,10.6
		c0.2,4.5,0.4,8,0.4,10.6c0,0.7-0.5,1.2-1.5,1.3c-1.2,0.1-4.2,0.2-9.1,0.2c-4,0-6.6-0.1-7.8-0.3c-1.2-0.2-1.8-0.9-1.8-2.2V86.5
		c0-1-0.7-1.5-2.1-1.5c-0.2,0-0.6,0-1.2,0.1c-0.6,0-1,0.1-1.2,0.1c-1,0-1.5-0.3-1.5-0.9c-0.3-3.1-0.5-7.6-0.5-13.5
		c0-1.3,0.7-2.1,2-2.4c1.2-0.1,2.4-0.2,3.7-0.3c-0.2-2.8-0.3-5.1-0.3-6.7c0-6.1,1.2-10.6,3.6-13.3c4.7-5.5,12.4-8.3,23-8.3
		c0.7,0,1.1,0.2,1.3,0.6c0.3,1.6,0.7,4,1.2,7.1c0,0.3,0.3,1.3,0.7,3c0.3,1.3,0.5,2.3,0.5,3c0,0.9-1.3,1.4-3.8,1.7
		c-2.9,0.3-4.7,0.9-5.4,1.6c-1.2,1.3-1.8,3.8-1.8,7.5c0,1.2,0.1,2.3,0.3,3.3c1,0,2.5,0,4.6-0.1c2.1-0.1,3.7-0.1,4.8-0.1
		c1.1,0,1.6,0.4,1.6,1.2c0,1.7,0,4.2,0.1,7.6C283.8,79.5,283.8,82,283.8,83.7z"/>
	<path class="st1" d="M338.5,89.2c0,3.6-1.2,5.6-3.5,6.1c-0.4,0.1-4.1,0.5-11,1.2c-4.2,0.5-10.5,1-18.8,1.7c0.5,2.3,2,4.1,4.5,5.3
		c2.1,1,4.4,1.5,7,1.5c3.2,0,6.4-0.9,9.6-2.6c1.4-0.9,2.7-1.7,4.1-2.6c0.7,0.4,2,2.2,3.8,5.4c1.8,3.3,2.6,5.4,2.6,6.2
		c0,0.2-0.3,0.7-0.8,1.2c-4.3,4.7-11.1,7-20.2,7c-8.5,0-15.3-2.5-20.5-7.4c-5.3-5-8-11.7-8-20.1c0-8.2,2.4-14.9,7.2-20.1
		c4.9-5.4,11.4-8.1,19.5-8.1c6.8,0,12.6,2.5,17.4,7.5C336.1,76.4,338.5,82.3,338.5,89.2z M319.8,85.9c0-2.2-0.8-4.1-2.3-5.8
		c-1.6-1.7-3.4-2.5-5.6-2.5c-2.2,0-4.1,0.9-5.6,2.8c-1.4,1.7-2,3.8-2,6.1c0,1,0.5,1.4,1.5,1.4c2.6,0,6.7-0.4,12.3-1.2
		C319.2,86.6,319.8,86.3,319.8,85.9z"/>
	<path class="st1" d="M375.6,75c0,0.4-0.3,0.8-0.8,1.4c-1-0.2-2-0.4-3-0.4c-2.1,0-3.9,0.5-5.3,1.4c-1.7,1.1-2.6,2.6-2.6,4.5
		c0,1.2,0.9,2.8,2.7,4.8c2.7,2.9,4.4,4.8,5.1,5.8c1.8,2.7,2.7,5.6,2.7,8.7c0,1.8-0.4,3.7-1.1,5.8c-0.8,2.2-1.9,3.9-3.1,4.9
		c-2.6,2.3-5.7,4.2-9.2,5.8c-3.8,1.6-7.3,2.5-10.5,2.5c-0.7,0-2.3-1.9-4.8-5.8c-2.5-3.9-3.7-6.2-3.7-7.1c0-0.3,0.2-0.5,0.6-0.6
		c2.5-0.5,5-0.9,7.5-1.4c3.1-1,4.7-2.6,4.7-4.9c0-1.6-0.9-3.4-2.7-5.4c-3.2-3.6-4.9-5.5-5.1-5.7c-1.8-2.6-2.7-5.3-2.7-8.1
		c0-5.3,2.7-9.9,8.1-13.6c4.8-3.3,10-5,15.5-5c0.6,0,2,1.9,4.2,5.7C374.4,72.1,375.6,74.3,375.6,75z"/>
	<path class="st1" d="M414.5,75c0,0.4-0.3,0.8-0.8,1.4c-1-0.2-2-0.4-3-0.4c-2.1,0-3.9,0.5-5.3,1.4c-1.7,1.1-2.6,2.6-2.6,4.5
		c0,1.2,0.9,2.8,2.7,4.8c2.7,2.9,4.4,4.8,5.1,5.8c1.8,2.7,2.7,5.6,2.7,8.7c0,1.8-0.4,3.7-1.1,5.8c-0.8,2.2-1.9,3.9-3.1,4.9
		c-2.6,2.3-5.7,4.2-9.2,5.8c-3.8,1.6-7.3,2.5-10.5,2.5c-0.7,0-2.3-1.9-4.8-5.8c-2.5-3.9-3.7-6.2-3.7-7.1c0-0.3,0.2-0.5,0.6-0.6
		c2.5-0.5,5-0.9,7.5-1.4c3.1-1,4.7-2.6,4.7-4.9c0-1.6-0.9-3.4-2.7-5.4c-3.2-3.6-4.9-5.5-5.1-5.7c-1.8-2.6-2.7-5.3-2.7-8.1
		c0-5.3,2.7-9.9,8.1-13.6c4.8-3.3,10-5,15.5-5c0.6,0,2,1.9,4.2,5.7C413.3,72.1,414.5,74.3,414.5,75z"/>
	<path class="st2" d="M496.7,80.8c0,11.1-3.5,20.4-10.6,27.9c-7.2,7.6-16.4,11.4-27.4,11.4c-11,0-20.1-3.8-27.4-11.5
		c-7.1-7.5-10.7-16.8-10.7-27.8c0-11.1,3.6-20.4,10.7-27.9c7.3-7.7,16.4-11.6,27.4-11.6c10.9,0,20,3.9,27.3,11.6
		C493.1,60.5,496.7,69.8,496.7,80.8z M476.4,80.7c0-5.3-1.6-9.9-4.9-13.6c-3.4-3.9-7.7-5.9-13-5.9c-5,0-9.3,2-12.8,6.1
		c-3.4,3.9-5.1,8.4-5.1,13.5c0,5.4,1.6,10,4.8,13.6c3.3,3.8,7.7,5.7,13.1,5.7c5,0,9.3-2,12.8-6C474.8,90.2,476.4,85.8,476.4,80.7z"
		/>
	<path class="st2" d="M539.6,84.9c0,1.4-0.8,2.1-2.3,2.1c-0.7,0-1.7,0-3-0.1c-1.3-0.1-2.3-0.1-2.9-0.1c-3,0-5,0.5-6,1.4
		c-1.1,0.9-1.6,2.8-1.6,5.6c0,1.5,0,3.9,0.1,7c0.1,3.1,0.1,5.4,0.1,7c0,1,0.1,2.6,0.2,4.6c0.1,2,0.2,3.6,0.2,4.6
		c0,0.9-0.6,1.3-1.8,1.4c-1.7,0.1-4.3,0.2-7.8,0.2c-3.4,0-6.1-0.1-8.1-0.3c-1.2-0.1-1.8-0.7-1.8-1.8c0-2.8,0-7.1,0.1-12.8
		c0-5.7,0.1-9.9,0.1-12.8c0-8.4-0.8-15.2-2.3-20.7c-0.1-0.3-0.1-0.6-0.1-0.8c0-0.5,0.3-0.9,0.8-1.1c2-0.2,4.8-0.6,8.6-1.2
		c5.6-1.1,8.5-1.7,8.7-1.7c0.6,0,1,1.1,1.2,3.4c0.2,2.2,0.5,3.4,1,3.4c-0.5,0,1-0.9,4.4-2.8s6.7-2.8,9.9-2.8c2,0,3,0.4,3,1.3
		c0,1-0.1,2.5-0.3,4.4c-0.2,2-0.3,3.5-0.4,4.4c0,1,0,2.4,0.1,4.1C539.6,82.8,539.6,84.2,539.6,84.9z"/>
	<path class="st1" d="M617.7,44.9c0,4.1-0.2,10.2-0.5,18.3c-0.3,8.1-0.5,14.2-0.5,18.3v35.2c0,1-0.5,1.4-1.5,1.4
		c-0.9,0-2.1,0-3.9,0.1c-1.7,0.1-3,0.1-3.9,0.1c-0.9,0-2.3-0.1-4.2-0.2c-1.9-0.1-3.2-0.2-4.2-0.2c-0.6,0-1.4-0.6-2.3-1.8
		c-2.6-3.5-8.3-11.1-17.3-23c-2.5-3.3-6.2-8.2-11.2-14.6c-0.1-0.2-0.4-0.4-0.8-0.6c-0.3,0.2-0.4,0.6-0.4,1.2
		c0,4.1,0.1,10.3,0.3,18.6c0.2,8.3,0.3,14.4,0.3,18.6c0,1.2-0.5,1.9-1.4,1.9h-18.5c-1,0-1.5-0.6-1.5-1.7c0-3.8,0.2-9.6,0.6-17.4
		c0.4-7.8,0.6-13.6,0.6-17.5c0-4.1-0.2-10.2-0.5-18.4c-0.3-8.1-0.5-14.3-0.5-18.3c0-0.8,0.7-1.2,2.1-1.2c2.1,0,4.6-0.1,7.6-0.4
		c0.7-0.1,2.1-0.3,4.2-0.7c1.8-0.3,3.2-0.5,4.2-0.5c0.4,0,1.1,0.6,2,1.8l19.9,27.3c1.8,2.5,4.5,6.1,8.1,10.8
		c0.9,1.1,1.7,1.7,2.3,1.7c0.5,0,0.7-1.4,0.7-4.2c0-3.7-0.2-9.4-0.6-16.9c-0.4-7.5-0.6-13.1-0.6-16.9c0-1.3,0.4-2,1.1-2
		c2.1,0,5.4-0.1,9.7-0.3c4.3-0.2,7.5-0.3,9.7-0.3C617.3,43.3,617.7,43.8,617.7,44.9z"/>
	<path class="st1" d="M678.6,91.9c0,8.1-2.5,14.7-7.4,19.8c-5,5.1-11.5,7.6-19.6,7.6c-7.8,0-14.3-2.5-19.3-7.5
		c-5.1-5-7.6-11.4-7.6-19.2c0-8.3,2.4-15,7.3-20.1c4.8-5.1,11.4-7.7,19.6-7.7c8,0,14.6,2.5,19.5,7.6
		C676.1,77.3,678.6,83.8,678.6,91.9z M661.1,91.9c0-2.8-0.9-5.3-2.6-7.4c-1.7-2.2-4-3.2-6.8-3.2c-2.8,0-5.1,1.1-6.9,3.3
		c-1.7,2.1-2.6,4.5-2.6,7.4c0,2.9,0.9,5.4,2.6,7.4c1.8,2.2,4.1,3.3,6.9,3.3c2.8,0,5.1-1.1,6.9-3.3C660.2,97.2,661.1,94.8,661.1,91.9
		z"/>
	<path class="st1" d="M720.8,102.5c0,1.1-0.1,2.7-0.4,4.9c-0.3,2.2-0.4,3.8-0.4,4.8s-0.1,1.7-0.3,1.9c-0.2,0.3-0.8,0.7-1.8,1.2
		c-4.6,2.5-9.7,3.8-15.3,3.8c-10.3,0-15.4-3.9-15.4-11.8c0-2.3,0.1-5.9,0.3-10.6c0.2-4.7,0.3-8.2,0.3-10.6c0-1.6-0.9-2.3-2.7-2.3
		c-0.1,0-0.4,0-0.7,0c-0.3,0-0.6,0.1-0.7,0.1c-1.4,0-2-0.5-2-1.4c0-0.6,0-1.4,0.1-2.6c0.1-1.2,0.1-2,0.1-2.6c0-0.7,0-1.9-0.1-3.4
		c-0.1-1.5-0.1-2.7-0.1-3.4c0-0.7,1.1-1.1,3.4-1.2c1.3,0,2-0.4,2.1-1.1c0.2-1.4,0.3-3.5,0.2-6.4c-0.1-4.6-0.2-6.8-0.2-6.6
		c0-4.1,0.4-6.2,1.2-6.2c1,0,2.3,0.2,4.1,0.6c2,0.5,3.4,0.7,4.2,0.8c1.8,0.2,4.6,0.6,8.2,1c0.9,0.1,1.3,0.4,1.3,0.9
		c0,1.4-0.1,3.6-0.3,6.5c-0.2,2.9-0.3,5.1-0.3,6.5c0,1.7,0.5,2.6,1.5,2.6c1.2,0,3.1-0.1,5.7-0.2c2.5-0.1,4.4-0.2,5.7-0.2
		c0.8,0,1.2,0.3,1.2,0.8c0,0.8-0.1,2-0.3,3.7c-0.2,1.6-0.3,2.9-0.3,3.7c0,0.9,0,2.1,0.1,3.7c0,1.6,0.1,2.9,0.1,3.7
		c0,0.7-0.5,1.1-1.5,1.1c-0.7,0-1.9,0-3.6-0.1c-1.7-0.1-2.9-0.1-3.6-0.1h-4c-0.5,0-0.8,0.8-0.8,2.3c0,0.9,0,2.1,0,3.8
		c0,1.7,0.1,3,0.1,3.8c0,3,0.3,5.1,1,6.2c1,1.5,2.8,2.3,5.7,2.3c0.9,0,2.2-0.2,3.8-0.6c1.7-0.4,2.8-0.6,3.5-0.6
		C720.4,101.3,720.8,101.7,720.8,102.5z"/>
</g>
<path class="st3" d="M71.1,69.1v35.7c0,0-2.4,1.3-11.4,2.7c-8.9,1.5-6.2,1.5-15,1.5s-9.1,0.4-12.3-1.9c-3.2-2.3-4.1-6.9-4.1-6.9
	l-0.6-4c0,0,0.2-0.4-1.2-2.5s-1.8-2.1-2-4.6c-0.2-2.5,1.7-3.1,1.8-4.2c0.2-1-1.2-4.2-1.2-4.2l-1.2-1.9c0,0-1.5-0.6-0.9-2.1
	s2-4.4,2-4.4l0.6-3.1c0,0,0.3-0.8-0.8-2.1c-1.1-1.3-1.7-2.1-1.1-4c0.6-1.9,3.8-5,3.8-5l5.3-1.7c0,0,9.3-1,10.9,0s3-1,2.1-4
	s-2.1-6.1-2.6-7.3c-0.5-1.3-0.9-3.1-1.5-4.6c-0.6-1.5-1.2-3.6-1.1-5.7s-0.2-2.3,0.9-5.9s0.2-3.4,2.6-4.8c2.4-1.5,3.2-4.2,5-2.5
	c1.8,1.7,1.5,2.3,1.4,6.7s1.1,5.2,1.1,5.2l2.1,5.9c0,0,0.3,2.1,1.4,3.6c1.1,1.5,2.9,3.8,2.9,3.8s2.3,4.2,2.3,5.5
	c0,1.3,3.3,8.4,3.3,8.4s2.4,5.9,3.2,6.5c0.8,0.6,1.7,1.3,2.4,1.5C70.1,68.7,71.1,69.1,71.1,69.1z"/>
<path class="st4" d="M730.3,81.5l-0.5-29.8c0,0,2.8-1.1,13.1-2.5c10.3-1.4,7.2-1.3,17.4-1.5c10.2-0.2,10.5-0.5,14.3,1.4
	c3.7,1.9,4.8,5.7,4.8,5.7l0.8,3.3c0,0-0.2,0.4,1.4,2.1s2.1,1.7,2.3,3.8c0.2,2.1-1.9,2.7-2.1,3.5c-0.2,0.9,1.5,3.5,1.5,3.5l1.4,1.6
	c0,0,1.8,0.5,1.1,1.7c-0.7,1.2-2.2,3.7-2.2,3.7l-0.7,2.6c0,0-0.3,0.7,0.9,1.7c1.2,1,2,1.7,1.3,3.3c-0.7,1.6-4.3,4.3-4.3,4.3
	l-6.1,1.5c0,0-10.7,1-12.6,0.2c-1.9-0.8-3.5,0.9-2.4,3.4c1.1,2.4,2.5,5,3.1,6.1c0.5,1,1.1,2.6,1.8,3.8s1.5,3,1.3,4.7
	c-0.1,1.8,0.2,1.9-1,4.9s-0.1,2.8-2.9,4.1c-2.8,1.3-3.6,3.6-5.8,2.2c-2.1-1.4-1.8-1.9-1.7-5.6c0.1-3.7-1.3-4.4-1.3-4.4l-2.5-4.9
	c0,0-0.4-1.7-1.6-3c-1.2-1.2-3.4-3.1-3.4-3.1s-2.7-3.5-2.7-4.5c0-1.1-4-7-4-7s-2.9-4.9-3.8-5.4c-0.9-0.5-1.9-1-2.8-1.2
	C731.5,81.9,730.3,81.5,730.3,81.5z"/>
<path class="st5" d="M435.9,28.8l-17-3.7c-2.2-0.5-2.4-3.5-0.3-4.2l38.5-14.6c0.5-0.2,1-0.2,1.5,0L497.7,19c2.1,0.7,2,3.6-0.1,4.2
	l-17.5,5.2c-1.2,0.4-1.9,1.7-1.4,2.9l2,5c0.1,0.2,0.2,0.4,0.4,0.6c0.4,0.4,1,1.4,1.2,2.6c0.2,1.7,0.6,3.4,0.6,4.3
	c0,0.4-0.1,1-0.2,1.5c-0.1,0.7-0.6,1.3-1.2,1.6l-1.1,0.5l-0.3,0.2c-0.2,0.1-0.6,0.4-1.9,1.1c-1.5,0.8-3.1,1.1-3.9,1.3
	c-0.4,0.1-0.9,0.3-1.2,0.6l-1.3,1.4c-0.2,0.2-0.5,0.4-0.9,0.5l-3.5,1.2l-3.9,1.3c-0.2,0.1-0.5,0.1-0.7,0.1h-4.2
	c-0.4,0-0.2,1.1-3.4,0c-2.5-0.9-5.8-1.3-7.2-1.4c-0.4,0-0.8-0.2-1.1-0.4c-0.7-0.5-1.9-1.3-3.3-1.9c-2-0.9-4.2-2.6-5.2-2.6
	c-0.8,0-2.6,0.2-3.2,0.3c-0.1,0-0.3,0-0.4,0.1l-1.6,0.5l0.4-3.5c0-0.1,0-0.2,0-0.3l0.7-3c0-0.2,0.1-0.3,0.2-0.5l1.2-2.4
	c0.1-0.1,0.1-0.2,0.1-0.4l0.7-2.6l0.9-3.4c0.1-0.2,0.1-0.4,0.1-0.6V31c0-0.1,0-0.2,0-0.3v0C437.5,29.8,436.9,29,435.9,28.8z"/>
<path class="st6" d="M424.9,24.8c0,0.7,0,3.4,0,3.4s-1.4-0.2,0,1.9s-0.9,2.2,0,3.8s3.3,4.3,3.3,7.9s0,12,0,12v6.9V65v6.5v1.4
	c0,0,3.3,0.7,0,1c-3.3,0.2-7,0-7,0s-2.8,1.7-2.8,0c0-1.7,0.5-1.4,0.9-4.1c0.5-2.6-0.9-6.9-0.9-6.9l1.9-4.8c0,0,0.9-2.2,0.9-4.3
	s0-6,0-6s0.5-4.1,0-5c-0.5-1-0.9-1.9-0.9-3.6s0-3.8,0-3.8l1.4-3.8v-3.4l0.5-3.4H424.9z"/>
</svg>
