<svg id="Layer_1" enable-background="new 0 0 256 256" height="512" viewBox="0 0 256 256" width="512" xmlns="http://www.w3.org/2000/svg"><path d="m242.002 209.405h-228c-3.314 0-6-2.686-6-6v-158c0-3.314 2.686-6 6-6h228c3.314 0 6 2.686 6 6v158c0 3.314-2.687 6-6 6z" fill="#e0ebfc"/><path d="m20.002 194.405v-140c0-1.657 1.343-3 3-3h210c1.657 0 3 1.343 3 3v140c0 1.657-1.343 3-3 3h-210c-1.657 0-3-1.343-3-3z" fill="#a4c9ff"/><path d="m242.001 211.405h-228c-4.411 0-8-3.589-8-8v-158c0-4.411 3.589-8 8-8h228c4.411 0 8 3.589 8 8v158c0 4.411-3.588 8-8 8zm-228-170c-2.206 0-4 1.794-4 4v158c0 2.206 1.794 4 4 4h228c2.206 0 4-1.794 4-4v-158c0-2.206-1.794-4-4-4z" fill="#3762cc"/><path d="m233.001 199.405h-210c-2.757 0-5-2.243-5-5v-140c0-2.757 2.243-5 5-5h210c2.757 0 5 2.243 5 5v140c0 2.757-2.243 5-5 5zm-210-146c-.551 0-1 .448-1 1v140c0 .552.449 1 1 1h210c.551 0 1-.448 1-1v-140c0-.552-.449-1-1-1z" fill="#3762cc"/><g fill="#4671c6"><path d="m210.942 114.347c-6.009 7.094-17.104 2.883-17.104-7.082 0-14.049 23.294-17.647 23.294 4.832 0 24.032-22.024 18.833-22.024 10.4 0-2.784 4.176-3.52 5.389-.223.634 1.731 2.222 2.962 4.186 2.962 5.016.001 6-5.902 6.259-10.889zm-.925-9.609c-2.05-6.357-10.255-5.513-10.255 2.394 0 10.397 13.386 7.317 10.255-2.394z"/><path d="m165.762 83.298c-1 .429-1.305 1.262-1.921 2.677-.089.188-.249.335-.482.442-2.781 1.287-3.524-3.746 1.432-5.481 6.455-2.26 11.756 3.96 6.265 8.573 5.919 3.192 3.07 11.056-3.869 11.056-6.064 0-8.57-7.054-4.886-7.054 1.525 0 1.125 1.759 2.67 3.514 1.623 1.84 5.615.833 5.615-2.577 0-4.109-3.791-3.239-4.791-3.239-2.047 0-2.258-2.824.374-2.824 5.816-.001 3.723-6.871-.407-5.087z"/><path d="m224.81 82.862c0-1.303-1.057-2.36-2.36-2.36-38.586 0-37.288-.535-37.783 1.501-12.728 52.416-12.093 49.526-12.765 53.325h-.131c-.587-2.791-8.708-25.191-8.352-24.191-.552-1.552-2.295-2.322-3.814-1.683l-4.791 2.013c-2.037.856-.734 3.94 1.301 3.071l3.384-1.444 9.798 26.374c.976 2.627 4.777 2.417 5.456-.304l13.456-53.942h34.242c1.302 0 2.359-1.057 2.359-2.36z"/><path d="m223.175 137.698h-35.525c-1.356 0-2.455-1.099-2.455-2.455 0-1.356 1.099-2.455 2.455-2.455h35.525c1.356 0 2.455 1.099 2.455 2.455 0 1.356-1.099 2.455-2.455 2.455z"/><path d="m202.368 145.627c-2.705 1.161-2.449 4.475-3.998 5.188-.386.179-.831.267-1.336.267-4.758 0-2.517-10.088 8.195-10.088 9.385 0 13.103 8.954 5.946 14.965 3.219 1.736 5.322 4.295 5.322 7.951 0 1.351-.271 2.657-.814 3.919-3.574 8.339-17.266 9.01-21.29.201-.726-1.592-1.181-3.377.134-4.621 1.443-1.366 3.611-.788 4.041.456 1.515 4.046 2.957 6.102 6.215 6.102 2.977 0 5.611-2.36 5.611-5.791 0-6.921-6.845-5.389-7.972-5.389-3.399 0-3.755-4.699.622-4.699 9.686.002 6.232-11.444-.676-8.461z"/></g><path d="m130.877 103.356-8.687-6.254c-10.597-7.629-11.547-17.807-12.556-21.809-18.161 20.05-57.767 27.209-81.828 14.108-.531 2.952-.824 5.987-.824 9.091v4.864c-.11-.002-.218-.016-.328-.016-8.753 0-15.848 7.031-15.848 15.706 0 8.674 7.096 15.706 15.848 15.706.575 0 1.141-.034 1.7-.093 5.361 22.774 25.961 39.745 50.575 39.745s45.215-16.97 50.575-39.745c.559.059 1.126.093 1.7.093 8.753 0 15.848-7.032 15.848-15.706.001-8.972-7.514-15.92-16.175-15.69z" fill="#f9cfcf"/><path d="m111.587 179.825c-8.971 0-8.671-.004-8.671-.004l-.003.004h-56.671c-14.972 0-27.109 12.137-27.109 27.109v24.612h119.563c0-9.166 0-15.499 0-24.612 0-14.972-12.137-27.109-27.109-27.109z" fill="#f9a7a7"/><path d="m78.336 215.672-22.411-35.847h22.984v.008l.01-.008h22.983l-22.421 35.847c-.263.423-.88.423-1.145 0z" fill="#e0ebfc"/><path d="m78.91 217.989c-.928 0-1.776-.47-2.269-1.256 0-.001 0-.001 0-.001l-22.411-35.846c-.385-.617-.406-1.394-.054-2.03.353-.636 1.022-1.03 1.75-1.03h22.983.011 22.983c.727 0 1.397.395 1.75 1.03.353.637.332 1.414-.054 2.03l-22.421 35.847c-.492.787-1.341 1.256-2.268 1.256zm1.12-3.381.002.003v-.001c-.001 0-.001-.001-.002-.002zm-20.495-32.783 19.375 30.991 19.384-30.991h-19.285c-.065.004-.131.004-.196 0z" fill="#3762cc"/><path d="m78.939 152.343c-3.561 0-6.876-1.282-9.094-3.52-1.685-1.697-2.612-3.84-2.612-6.032 0-1.104.896-2 2-2s2 .896 2 2c0 1.146.502 2.258 1.452 3.215 1.451 1.464 3.789 2.337 6.254 2.337 2.481 0 4.749-.852 6.222-2.336.95-.957 1.452-2.069 1.452-3.216 0-1.104.896-2 2-2s2 .896 2 2c0 2.193-.928 4.336-2.613 6.033-2.218 2.237-5.521 3.519-9.061 3.519z" fill="#3762cc"/><path d="m53.232 131.618c-3.458 0-6.271-2.813-6.271-6.27v-10.451c0-3.458 2.813-6.271 6.271-6.271 3.457 0 6.27 2.813 6.27 6.271v10.451c.001 3.457-2.813 6.27-6.27 6.27z" fill="#3762cc"/><path d="m104.615 131.618c-3.458 0-6.271-2.813-6.271-6.27v-10.451c0-3.458 2.813-6.271 6.271-6.271 3.457 0 6.27 2.813 6.27 6.271v10.451c0 3.457-2.813 6.27-6.27 6.27z" fill="#3762cc"/><path d="m16.653 80.964c-1.002 5.295-1.176 10.761-.435 16.203l1.241 9.102c2.595-1.837 5.763-2.929 9.195-2.929.111 0 .218.014.328.017v-4.865c0-3.103.297-6.136.829-9.088-4.624-2.517-8.287-5.487-11.158-8.44z" fill="#4671c6"/><path d="m53.227 142.695c-12.444 0-22.568-10.124-22.568-22.568s10.124-22.568 22.568-22.568 22.568 10.124 22.568 22.568-10.125 22.568-22.568 22.568zm0-41.136c-10.239 0-18.568 8.33-18.568 18.568s8.33 18.568 18.568 18.568 18.568-8.33 18.568-18.568-8.33-18.568-18.568-18.568z" fill="#3762cc"/><path d="m104.614 142.689c-12.444 0-22.568-10.124-22.568-22.567 0-12.444 10.124-22.568 22.568-22.568s22.568 10.124 22.568 22.568c0 12.443-10.124 22.567-22.568 22.567zm0-41.135c-10.239 0-18.568 8.33-18.568 18.568s8.33 18.567 18.568 18.567 18.568-8.329 18.568-18.567-8.329-18.568-18.568-18.568z" fill="#3762cc"/><path d="m84.973 124.405h-12.131c-2.002 0-3.624-1.623-3.624-3.624 0-2.002 1.623-3.624 3.624-3.624h12.131c2.002 0 3.624 1.623 3.624 3.624.001 2.001-1.622 3.624-3.624 3.624z" fill="#a4c9ff"/><path d="m51.704 174.608-1.648 5.217 15.627 24.996 13.231-22.592-23.708-9.294c-1.431-.561-3.039.207-3.502 1.673z" fill="#e0ebfc"/><path d="m106.118 174.608 1.648 5.217-15.627 24.996-13.231-22.592 23.708-9.294c1.431-.561 3.039.207 3.502 1.673z" fill="#e0ebfc"/><path d="m65.684 206.82c-.689 0-1.33-.354-1.696-.939l-15.627-24.995c-.311-.497-.388-1.104-.211-1.663l1.647-5.217c.387-1.226 1.274-2.246 2.434-2.8 1.159-.554 2.51-.601 3.706-.134l23.708 9.294c.544.214.968.654 1.16 1.207s.132 1.161-.164 1.666l-13.231 22.592c-.354.604-.997.979-1.697.989-.01 0-.02 0-.029 0zm-13.442-27.272 13.386 21.41 10.378-17.722-21.529-8.439c-.229-.092-.426-.028-.522.019-.096.046-.269.158-.344.396z" fill="#3762cc"/><path d="m92.139 206.82c-.01 0-.019 0-.029 0-.7-.011-1.343-.386-1.697-.989l-13.231-22.592c-.296-.505-.355-1.113-.164-1.666s.615-.993 1.16-1.207l23.708-9.294c1.197-.467 2.547-.42 3.706.134 1.16.554 2.046 1.574 2.434 2.8l1.648 5.217c.176.559.099 1.166-.211 1.663l-15.627 24.995c-.367.585-1.008.939-1.697.939zm-10.323-23.584 10.378 17.722 13.386-21.41-1.37-4.337s0 0 0-.001c-.075-.236-.247-.349-.343-.395-.097-.047-.292-.11-.521-.019z" fill="#3762cc"/><path d="m84.973 126.405h-12.131c-3.102 0-5.625-2.523-5.625-5.625s2.523-5.624 5.625-5.624h12.131c3.102 0 5.625 2.522 5.625 5.624s-2.523 5.625-5.625 5.625zm-12.131-7.249c-.896 0-1.625.729-1.625 1.624 0 .896.729 1.625 1.625 1.625h12.131c.896 0 1.625-.729 1.625-1.625s-.729-1.624-1.625-1.624z" fill="#3762cc"/><path d="m17.459 108.269c-.27 0-.541-.055-.796-.165-.642-.278-1.091-.872-1.185-1.564l-1.241-9.102c-.76-5.576-.608-11.243.451-16.846.139-.733.674-1.328 1.389-1.543.716-.218 1.49-.014 2.01.521 3.102 3.191 6.695 5.908 10.68 8.077.757.412 1.165 1.263 1.012 2.111-.529 2.936-.797 5.874-.797 8.733v4.864c0 .536-.216 1.051-.598 1.427-.383.376-.891.575-1.437.573-.088-.002-.174-.007-.261-.014-.005 0-.011 0-.016 0-2.919 0-5.692.886-8.055 2.559-.343.244-.748.369-1.156.369zm.602-23.219c-.441 3.957-.395 7.928.139 11.847l.838 6.143c1.871-.883 3.875-1.431 5.945-1.623v-2.925c0-2.638.21-5.334.625-8.033-2.7-1.572-5.225-3.382-7.547-5.409z" fill="#3762cc"/><path d="m129.901 59.552c-2.14-2.789-5.784-3.961-9.148-2.942l-2.654.804c-.245 7.452-3.421 12.311-8.465 17.879.643 2.551 1.429 13.799 12.556 21.809l8.687 6.254c2.848-.069 5.528.607 7.906 1.893l1.102-8.082c1.822-13.369-1.772-26.911-9.984-37.615z" fill="#4671c6"/><path d="m78.93 176.401c-24.634 0-45.824-16.221-52.111-39.652-.055.001-.11.001-.165.001-9.841 0-17.848-7.942-17.848-17.705 0-9.204 7.116-16.791 16.177-17.629v-2.925c0-3.112.288-6.29.855-9.444.114-.632.524-1.171 1.104-1.449.58-.276 1.256-.261 1.821.047 23.058 12.557 61.64 5.899 79.389-13.694.495-.547 1.251-.776 1.966-.598.716.179 1.275.736 1.456 1.451.125.495.249 1.08.389 1.74 1.002 4.735 2.681 12.66 11.396 18.935l8.158 5.873c4.52.062 8.932 1.888 12.201 5.071 3.441 3.351 5.336 7.833 5.336 12.622 0 9.763-8.007 17.705-17.848 17.705-.055 0-.11 0-.165-.001-6.288 23.432-27.478 39.652-52.111 39.652zm-50.574-43.744c.918 0 1.731.631 1.945 1.542 5.294 22.493 25.291 38.202 48.628 38.202s43.334-15.709 48.628-38.202c.231-.979 1.152-1.633 2.155-1.531.526.056 1.014.082 1.492.082 7.636 0 13.848-6.148 13.848-13.705 0-3.7-1.465-7.165-4.126-9.757-2.667-2.597-6.296-4.022-9.998-3.934-.436.036-.866-.12-1.221-.376l-8.687-6.254c-8.776-6.318-11.341-14.219-12.544-19.398-19.107 18.035-55.56 24.143-79.11 13.104-.255 2.033-.384 4.063-.384 6.062v4.864c0 .536-.216 1.051-.598 1.427-.383.376-.891.575-1.437.573-.088-.002-.174-.007-.261-.014-.002 0-.004 0-.006 0-7.666 0-13.875 6.147-13.875 13.703 0 7.557 6.212 13.705 13.848 13.705.479 0 .966-.026 1.492-.082.071-.007.142-.011.211-.011z" fill="#3762cc"/><path d="m138.696 233.545h-119.563c-1.104 0-2-.896-2-2v-24.611c0-16.051 13.058-29.108 29.109-29.108h3.815c.689 0 1.331.355 1.696.939l13.875 22.193 11.558-19.734c.358-.612 1.016-.989 1.726-.989s1.367.377 1.726.989l11.558 19.734 13.875-22.193c.365-.584 1.006-.939 1.696-.939h3.822c16.05 0 29.108 13.058 29.108 29.108v24.611c-.001 1.104-.897 2-2.001 2zm-117.563-4h115.563v-22.611c0-13.845-11.264-25.108-25.108-25.108h-2.713l-15.04 24.056c-.371.594-1.018.969-1.725.939-.7-.011-1.343-.386-1.697-.989l-11.502-19.639-11.502 19.639c-.354.604-.997.979-1.697.989-.699-.032-1.354-.347-1.725-.939l-15.04-24.056h-2.707c-13.845 0-25.109 11.264-25.109 25.108v22.611z" fill="#3762cc"/><path d="m55.207 172.935 23.704 9.292 23.704-9.292c.134-.052.27-.082.406-.112v-4.3c-15.07 7.844-33.148 7.845-48.227-.014v4.312c.139.03.277.061.413.114z" fill="#f9cfcf"/><path d="m78.911 184.228c-.248 0-.495-.046-.73-.138l-23.684-9.285c-.043-.012-.087-.021-.131-.029-.917-.201-1.572-1.015-1.572-1.954v-4.312c0-.699.365-1.348.963-1.71.598-.364 1.342-.387 1.961-.063 14.52 7.566 31.857 7.571 46.379.013.621-.32 1.364-.299 1.961.064.598.362.962 1.011.962 1.71v4.3c0 .942-.657 1.756-1.578 1.955-.043.009-.086.017-.129.029l-23.672 9.282c-.235.092-.482.138-.73.138zm-14.121-9.685 14.122 5.536 14.077-5.519c-9.231 2.479-18.972 2.471-28.199-.017zm-10.283.265h.01z" fill="#3762cc"/><path d="m138.783 107.249c-.328 0-.655-.08-.951-.241-2.139-1.156-4.469-1.726-6.907-1.653-.448.019-.864-.122-1.217-.376l-8.687-6.254c-10.466-7.534-12.382-17.914-13.104-21.822-.087-.47-.155-.85-.223-1.12-.164-.648.008-1.336.457-1.832 4.865-5.371 7.726-9.81 7.948-16.602.028-.856.599-1.601 1.419-1.849l2.654-.804c4.136-1.25 8.683.208 11.314 3.638 8.477 11.051 12.26 25.304 10.378 39.104l-1.102 8.082c-.088.65-.491 1.216-1.076 1.513-.282.144-.593.216-.903.216zm-7.266-5.897c1.95.025 3.838.358 5.644.994l.743-5.449c1.738-12.75-1.757-25.918-9.589-36.127-1.623-2.116-4.428-3.019-6.981-2.245l-1.319.399c-.573 6.861-3.582 11.708-8.219 16.953.018.096.037.196.056.3.702 3.802 2.346 12.706 11.507 19.302z" fill="#3762cc"/><path d="m110.966 39.509c-4.703-4.318-9.443-7.573-14.17-9.934 0 0 .002-.002.002-.002-.037-.019-.075-.033-.113-.052-5.92-2.94-11.82-4.479-17.603-4.925-6.266-.585-12.232-.029-17.539 1.061-7.611 1.141-14.621 4.045-20.894 7.796-.573.331-.891.531-.891.531s.006.001.007.001c-15.62 9.644-26.48 24.426-30.173 29.913-.271.33-1.246 1.702-1.389 2.146-.326 1.016-.269 2.178.213 3.198 3.577 7.571 17.198 29.392 54.438 26.532 27.992-2.149 56.01-19.569 55.259-40.055-.23-6.254-2.806-12.225-7.147-16.21z" fill="#4671c6"/><path d="m56.365 98.03c-33.795 0-46.537-21.118-49.756-27.934-.684-1.445-.796-3.146-.31-4.662.272-.85 1.362-2.305 1.667-2.701 3.994-5.929 14.893-20.619 30.629-30.376.032-.022.064-.045.098-.065 0 0 .342-.217.96-.572 7.087-4.238 14.344-6.946 21.542-8.033 6.171-1.261 12.251-1.628 18.075-1.082 6.264.483 12.434 2.208 18.307 5.125l.108.049c.034.018.068.035.101.054 5.008 2.515 9.898 5.947 14.534 10.203 4.7 4.314 7.54 10.733 7.792 17.611.379 10.313-5.912 20.479-17.712 28.623-10.853 7.49-25.21 12.41-39.391 13.5-2.301.176-4.515.26-6.644.26zm-46.277-31.311c-.158.546-.109 1.15.136 1.669 2.958 6.26 14.697 25.638 46.181 25.641 2.018 0 4.112-.079 6.295-.247 25.85-1.985 54.144-18.075 53.413-37.988-.213-5.816-2.583-11.215-6.5-14.811-4.39-4.031-9.003-7.268-13.711-9.619-.016-.008-.032-.017-.048-.025l-.063-.028c-5.405-2.685-11.081-4.273-16.862-4.72-5.476-.51-11.181-.165-16.984 1.025-.035.008-.07.014-.105.019-6.696 1.004-13.48 3.539-20.164 7.536-.363.209-.613.359-.745.439-.037.027-.075.053-.115.077-15.182 9.372-25.734 23.633-29.566 29.328-.035.053-.072.103-.112.151-.235.288-.881 1.224-1.05 1.553z" fill="#3762cc"/></svg>