<?xml version="1.0" encoding="iso-8859-1"?>
<!-- Generator: Adobe Illustrator 19.0.0, SVG Export Plug-In . SVG Version: 6.00 Build 0)  -->
<svg version="1.1" id="Capa_1" xmlns="http://www.w3.org/2000/svg" xmlns:xlink="http://www.w3.org/1999/xlink" x="0px" y="0px"
	 viewBox="0 0 426.667 426.667" style="enable-background:new 0 0 426.667 426.667;" xml:space="preserve">
<path style="fill:#44C4A1;" d="M258.118,109.254c0,0-11.023-19.015-30.865-7.441c-5.734,3.345-4.134-4.865-13.228,2.252V71.225
	c0,0,0.808,12.152,20.117,3.031c5.5-2.598,13.779-5.512,23.975-1.378C258.118,72.878,267.212,86.106,258.118,109.254z"/>
<rect x="207.403" y="65.114" style="fill:#DC8744;" width="6.613" height="77.909"/>
<rect y="332.749" style="fill:#3A556A;" width="426.667" height="28.804"/>
<rect x="16.93" y="182.66" style="fill:#D15241;" width="149.184" height="150.101"/>
<rect x="23.616" y="193.071" style="fill:#2D93BA;" width="22.507" height="55.061"/>
<polygon style="fill:#27A2DB;" points="23.615,248.144 23.615,193.083 46.12,193.083 "/>
<g>
	<rect x="34.219" y="192.858" style="fill:#EBF0F3;" width="1.306" height="55.279"/>
	<rect x="23.616" y="206.212" style="fill:#EBF0F3;" width="22.507" height="2.624"/>
</g>
<rect x="22.963" y="259.435" style="fill:#2D93BA;" width="22.507" height="55.061"/>
<polygon style="fill:#27A2DB;" points="22.963,314.493 22.963,259.433 45.468,259.433 "/>
<g>
	<rect x="33.562" y="259.204" style="fill:#EBF0F3;" width="1.306" height="55.279"/>
	<rect x="22.963" y="272.563" style="fill:#EBF0F3;" width="22.507" height="2.624"/>
</g>
<rect x="57.984" y="193.071" style="fill:#2D93BA;" width="22.507" height="55.061"/>
<polygon style="fill:#27A2DB;" points="57.983,248.144 57.983,193.083 80.488,193.083 "/>
<g>
	<rect x="68.565" y="192.858" style="fill:#EBF0F3;" width="1.306" height="55.279"/>
	<rect x="57.984" y="206.212" style="fill:#EBF0F3;" width="22.507" height="2.624"/>
</g>
<rect x="57.984" y="259.435" style="fill:#2D93BA;" width="22.507" height="55.061"/>
<polygon style="fill:#27A2DB;" points="57.983,314.493 57.983,259.433 80.488,259.433 "/>
<g>
	<rect x="68.565" y="259.204" style="fill:#EBF0F3;" width="1.306" height="55.279"/>
	<rect x="57.984" y="272.563" style="fill:#EBF0F3;" width="22.507" height="2.624"/>
</g>
<rect x="91.994" y="193.071" style="fill:#2D93BA;" width="22.507" height="55.061"/>
<polygon style="fill:#27A2DB;" points="91.994,248.144 91.994,193.083 114.499,193.083 "/>
<g>
	<rect x="102.613" y="192.858" style="fill:#EBF0F3;" width="1.306" height="55.279"/>
	<rect x="91.994" y="206.212" style="fill:#EBF0F3;" width="22.507" height="2.624"/>
</g>
<rect x="91.994" y="259.435" style="fill:#2D93BA;" width="22.507" height="55.061"/>
<polygon style="fill:#27A2DB;" points="91.994,314.493 91.994,259.433 114.499,259.433 "/>
<g>
	<rect x="102.613" y="259.204" style="fill:#EBF0F3;" width="1.306" height="55.279"/>
	<rect x="91.994" y="272.563" style="fill:#EBF0F3;" width="22.507" height="2.624"/>
</g>
<rect x="126.417" y="193.071" style="fill:#2D93BA;" width="22.507" height="55.061"/>
<polygon style="fill:#27A2DB;" points="126.419,248.144 126.419,193.083 148.924,193.083 "/>
<g>
	<rect x="137.003" y="192.858" style="fill:#EBF0F3;" width="1.306" height="55.279"/>
	<rect x="126.421" y="206.212" style="fill:#EBF0F3;" width="22.507" height="2.624"/>
</g>
<rect x="126.417" y="259.435" style="fill:#2D93BA;" width="22.507" height="55.061"/>
<polygon style="fill:#27A2DB;" points="126.419,314.493 126.419,259.433 148.924,259.433 "/>
<g>
	<rect x="137.003" y="259.204" style="fill:#EBF0F3;" width="1.306" height="55.279"/>
	<rect x="126.421" y="272.563" style="fill:#EBF0F3;" width="22.507" height="2.624"/>
</g>
<rect x="263.876" y="183.206" style="fill:#D15241;" width="149.184" height="149.547"/>
<rect x="281.728" y="193.071" style="fill:#2D93BA;" width="22.507" height="55.061"/>
<polygon style="fill:#27A2DB;" points="281.716,248.144 281.716,193.083 304.221,193.083 "/>
<g>
	<rect x="292.309" y="192.858" style="fill:#EBF0F3;" width="1.306" height="55.279"/>
	<rect x="281.728" y="206.212" style="fill:#EBF0F3;" width="22.507" height="2.624"/>
</g>
<rect x="281.062" y="259.435" style="fill:#2D93BA;" width="22.507" height="55.061"/>
<polygon style="fill:#27A2DB;" points="281.063,314.493 281.063,259.433 303.568,259.433 "/>
<g>
	<rect x="291.669" y="259.204" style="fill:#EBF0F3;" width="1.306" height="55.279"/>
	<rect x="281.062" y="272.563" style="fill:#EBF0F3;" width="22.507" height="2.624"/>
</g>
<rect x="316.075" y="193.071" style="fill:#2D93BA;" width="22.507" height="55.061"/>
<polygon style="fill:#27A2DB;" points="316.083,248.144 316.083,193.083 338.588,193.083 "/>
<g>
	<rect x="326.699" y="192.858" style="fill:#EBF0F3;" width="1.306" height="55.279"/>
	<rect x="316.075" y="206.212" style="fill:#EBF0F3;" width="22.507" height="2.624"/>
</g>
<rect x="316.075" y="259.435" style="fill:#2D93BA;" width="22.507" height="55.061"/>
<polygon style="fill:#27A2DB;" points="316.083,314.493 316.083,259.433 338.588,259.433 "/>
<g>
	<rect x="326.699" y="259.204" style="fill:#EBF0F3;" width="1.306" height="55.279"/>
	<rect x="316.075" y="272.563" style="fill:#EBF0F3;" width="22.507" height="2.624"/>
</g>
<rect x="350.08" y="193.071" style="fill:#2D93BA;" width="22.507" height="55.061"/>
<polygon style="fill:#27A2DB;" points="350.094,248.144 350.094,193.083 372.599,193.083 "/>
<g>
	<rect x="360.704" y="192.858" style="fill:#EBF0F3;" width="1.306" height="55.279"/>
	<rect x="350.08" y="206.212" style="fill:#EBF0F3;" width="22.507" height="2.624"/>
</g>
<rect x="350.08" y="259.435" style="fill:#2D93BA;" width="22.507" height="55.061"/>
<polygon style="fill:#27A2DB;" points="350.094,314.493 350.094,259.433 372.599,259.433 "/>
<g>
	<rect x="360.704" y="259.204" style="fill:#EBF0F3;" width="1.306" height="55.279"/>
	<rect x="350.08" y="272.563" style="fill:#EBF0F3;" width="22.507" height="2.624"/>
</g>
<rect x="384.512" y="193.071" style="fill:#2D93BA;" width="22.507" height="55.061"/>
<polygon style="fill:#27A2DB;" points="384.519,248.144 384.519,193.083 407.024,193.083 "/>
<g>
	<rect x="395.136" y="192.858" style="fill:#EBF0F3;" width="1.306" height="55.279"/>
	<rect x="384.512" y="206.212" style="fill:#EBF0F3;" width="22.507" height="2.624"/>
</g>
<rect x="384.512" y="259.435" style="fill:#2D93BA;" width="22.507" height="55.061"/>
<polygon style="fill:#27A2DB;" points="384.519,314.493 384.519,259.433 407.024,259.433 "/>
<g>
	<rect x="395.136" y="259.204" style="fill:#EBF0F3;" width="1.306" height="55.279"/>
	<rect x="384.512" y="272.563" style="fill:#EBF0F3;" width="22.507" height="2.624"/>
</g>
<rect x="155.955" y="175.706" style="fill:#E56353;" width="116.011" height="157.06"/>
<rect x="154.837" y="145.003" style="fill:#64798A;" width="117.124" height="30.942"/>
<polyline style="fill:#3A556A;" points="138.325,167.782 210.597,123.163 288.676,167.782 "/>
<rect x="155.895" y="175.706" style="fill:#D5D6DB;" width="33.084" height="156.267"/>
<g>
	<rect x="180.565" y="175.706" style="fill:#3A556A;" width="4.51" height="156.267"/>
	<rect x="170.18" y="175.706" style="fill:#3A556A;" width="4.51" height="156.267"/>
	<rect x="159.787" y="175.706" style="fill:#3A556A;" width="4.51" height="156.267"/>
</g>
<rect x="238.857" y="175.706" style="fill:#D5D6DB;" width="33.084" height="156.267"/>
<g>
	<rect x="263.509" y="175.706" style="fill:#3A556A;" width="4.51" height="156.267"/>
	<rect x="253.141" y="175.706" style="fill:#3A556A;" width="4.51" height="156.267"/>
	<rect x="242.769" y="175.706" style="fill:#3A556A;" width="4.51" height="156.267"/>
</g>
<rect x="121.847" y="331.951" style="fill:#64798A;" width="194.236" height="29.602"/>
<g>
	<rect x="297.088" y="335.706" style="fill:#D5D6DB;" width="9.318" height="22.101"/>
	<rect x="282.027" y="335.706" style="fill:#D5D6DB;" width="9.318" height="22.101"/>
	<rect x="266.965" y="335.706" style="fill:#D5D6DB;" width="9.318" height="22.101"/>
	<rect x="251.947" y="335.706" style="fill:#D5D6DB;" width="9.318" height="22.101"/>
	<rect x="236.885" y="335.706" style="fill:#D5D6DB;" width="9.318" height="22.101"/>
	<rect x="221.833" y="335.706" style="fill:#D5D6DB;" width="9.318" height="22.101"/>
	<rect x="206.763" y="335.706" style="fill:#D5D6DB;" width="9.318" height="22.101"/>
	<rect x="191.731" y="335.706" style="fill:#D5D6DB;" width="9.318" height="22.101"/>
	<rect x="176.683" y="335.706" style="fill:#D5D6DB;" width="9.318" height="22.101"/>
	<rect x="161.63" y="335.706" style="fill:#D5D6DB;" width="9.318" height="22.101"/>
	<rect x="146.56" y="335.706" style="fill:#D5D6DB;" width="9.318" height="22.101"/>
	<rect x="131.524" y="335.706" style="fill:#D5D6DB;" width="9.318" height="22.101"/>
</g>
<rect x="10.577" y="319.782" style="fill:#64798A;" width="145.067" height="12.885"/>
<g>
	<rect x="140.663" y="321.412" style="fill:#D5D6DB;" width="9.318" height="9.63"/>
	<rect x="125.615" y="321.412" style="fill:#D5D6DB;" width="9.318" height="9.63"/>
	<rect x="110.562" y="321.412" style="fill:#D5D6DB;" width="9.318" height="9.63"/>
	<rect x="95.514" y="321.412" style="fill:#D5D6DB;" width="9.318" height="9.63"/>
	<rect x="80.461" y="321.412" style="fill:#D5D6DB;" width="9.318" height="9.63"/>
	<rect x="65.408" y="321.412" style="fill:#D5D6DB;" width="9.318" height="9.63"/>
	<rect x="50.359" y="321.412" style="fill:#D5D6DB;" width="9.318" height="9.63"/>
	<rect x="35.307" y="321.412" style="fill:#D5D6DB;" width="9.318" height="9.63"/>
	<rect x="20.254" y="321.412" style="fill:#D5D6DB;" width="9.318" height="9.63"/>
</g>
<rect x="272.043" y="319.782" style="fill:#64798A;" width="144.67" height="12.885"/>
<g>
	<rect x="401.792" y="321.412" style="fill:#D5D6DB;" width="9.293" height="9.63"/>
	<rect x="386.773" y="321.412" style="fill:#D5D6DB;" width="9.293" height="9.63"/>
	<rect x="371.755" y="321.412" style="fill:#D5D6DB;" width="9.293" height="9.63"/>
	<rect x="356.736" y="321.412" style="fill:#D5D6DB;" width="9.293" height="9.63"/>
	<rect x="341.76" y="321.412" style="fill:#D5D6DB;" width="9.293" height="9.63"/>
	<rect x="326.741" y="321.412" style="fill:#D5D6DB;" width="9.293" height="9.63"/>
	<rect x="311.723" y="321.412" style="fill:#D5D6DB;" width="9.293" height="9.63"/>
	<rect x="296.704" y="321.412" style="fill:#D5D6DB;" width="9.293" height="9.63"/>
	<rect x="281.728" y="321.412" style="fill:#D5D6DB;" width="9.293" height="9.63"/>
</g>
<rect x="197.333" y="193.071" style="fill:#2D93BA;" width="32.448" height="55.061"/>
<polygon style="fill:#27A2DB;" points="197.332,248.144 197.332,193.083 229.777,193.083 "/>
<g>
	<rect x="212.612" y="192.858" style="fill:#EBF0F3;" width="1.882" height="55.279"/>
	<rect x="197.333" y="206.212" style="fill:#EBF0F3;" width="32.444" height="2.624"/>
</g>
<rect x="196.395" y="275.204" style="fill:#2F4859;" width="32.448" height="56.738"/>
<rect x="199.206" y="299.567" style="fill:#EBF0F3;" width="1.843" height="9.297"/>
<rect x="16.93" y="167.77" style="fill:#E1E6E9;" width="138.735" height="14.878"/>
<rect x="272.375" y="167.77" style="fill:#EBF0F3;" width="140.416" height="14.878"/>
<g>
	<rect x="374.528" y="147.797" style="fill:#64798A;" width="19.17" height="19.985"/>
	<rect x="36.535" y="147.797" style="fill:#64798A;" width="19.17" height="19.985"/>
</g>
<g>
</g>
<g>
</g>
<g>
</g>
<g>
</g>
<g>
</g>
<g>
</g>
<g>
</g>
<g>
</g>
<g>
</g>
<g>
</g>
<g>
</g>
<g>
</g>
<g>
</g>
<g>
</g>
<g>
</g>
</svg>
